<svg xmlns="http://www.w3.org/2000/svg" viewBox="0 0 207.6 104.1"><path fill="#B3B3B3" d="M27.8 10.4c-.7 1.2-1.6 2.1-2.7 2.7-1.1.6-2.4.9-3.8.9-2.1 0-3.8-.6-5.2-2-1.4-1.3-2.1-3-2.1-5s.7-3.7 2.1-5c1.4-1.3 3.1-2 5.2-2 1.3 0 2.5.3 3.6.8 1.1.6 1.9 1.3 2.6 2.3L26 4.3c-.5-.7-1.1-1.3-2-1.7-.8-.4-1.7-.6-2.7-.6-1.6 0-2.8.5-3.8 1.4-1 1-1.5 2.2-1.5 3.6 0 1.5.5 2.7 1.5 3.7s2.3 1.4 3.8 1.4c1 0 2-.2 2.8-.7.8-.4 1.5-1.2 2.1-2.1l1.6 1.1zm24.1-4.5h6.4c.6 0 1.1-.1 1.5-.4.3-.3.5-.8.5-1.4 0-.6-.2-1-.5-1.3-.3-.3-.9-.4-1.5-.4h-6.4v3.5zm0 1.9v5.8h-1.8V.4h8.2c1.2 0 2.2.3 2.9 1 .7.7 1 1.6 1 2.7 0 1-.3 1.8-.8 2.5-.6.7-1.3 1.1-2.1 1.3l3.3 5.8h-2l-3.4-5.8h-5.3zm35.8 5.8V6.8L82.2.3h2.4l4 4.7L92.5.3H95l-5.5 6.4v6.8h-1.8zm30.4-7.7h6.8c.6 0 1.1-.1 1.5-.4.3-.3.5-.8.5-1.4 0-.6-.2-1-.5-1.3-.3-.3-.8-.5-1.4-.5h-6.9v3.6zm0 1.9v5.8h-1.9V.4h8.7c1.3 0 2.2.3 2.9 1 .7.6 1 1.6 1 2.7s-.3 2-1 2.7c-.7.7-1.6 1.1-2.7 1.1h-7zm35.4 5.8V2.2h-5.1V.4h12v1.8h-5.1v11.4h-1.8zm34.2-1.5c1.6 0 2.9-.5 3.9-1.4 1-1 1.5-2.2 1.5-3.7 0-1.4-.5-2.7-1.5-3.6-1-1-2.3-1.4-3.9-1.4s-2.9.5-3.9 1.4c-1 .9-1.5 2.1-1.5 3.6s.5 2.7 1.5 3.7c1 .9 2.3 1.4 3.9 1.4zm0 1.9c-2.1 0-3.9-.7-5.3-2s-2.1-3-2.1-5 .7-3.7 2.1-5c1.4-1.3 3.1-2 5.3-2s3.9.7 5.3 2 2 3 2 5-.7 3.7-2.1 5c-1.3 1.3-3.1 2-5.2 2zM5.3 85.9v-44l-5.2-.8v-3h7.8c1.5 0 3.3-.1 5.3-.3l1.8-.1c.9-.1 1.8-.1 2.6-.1 5.2 0 9.1 1 11.6 2.9s3.8 4.8 3.8 8.7c0 2.1-.4 4.1-1.1 5.9-.7 1.8-1.7 3.3-3.1 4.5-1.4 1.3-3.1 2.1-5 2.6 2.6-.1 4.8.3 6.7 1.3 1.9 1 3.4 2.4 4.4 4.3 1 1.8 1.5 4 1.5 6.4 0 5.8-1.8 9.9-5.3 12.2-3.5 2.3-8.1 3.5-13.5 3.5-.7 0-2 0-3.8-.1-2.2-.2-4.3-.3-6.1-.3H0v-3l5.3-.6zM10.5 61c.8 0 2.6.1 5.4.1h2.3c3.1 0 5.5-.9 7.2-2.7 1.7-1.8 2.5-4.4 2.5-7.8 0-2.3-.3-4.1-1-5.5-.7-1.4-1.8-2.4-3.4-3.1-1.7-.7-3.8-1.1-6.5-1.1-1.4 0-3 .1-4.8.3-.7.1-1.3.1-1.6.1V61zm0 25c1.2.4 3.5.6 7 .6 4.5 0 7.9-1 10-2.8 2.2-1.9 3.3-4.7 3.3-8.5 0-2.5-.4-4.5-1.2-6.1-.8-1.6-2-2.7-3.7-3.4-1.7-.7-3.9-1.1-6.5-1.1h-3.6c-2.2 0-4 0-5.3.1V86zm31.4-.1l15.6-48.2h5.1l15.6 48.2 4.1.6v3H67v-3l5.5-.6-3.3-11H49.7l-3.3 10.9 5.5.7v3h-14v-3l4-.6zm26.2-14.6l-7-22.9-1.7-6.6-1.7 6.8-6.9 22.7h17.3zm40.7-25.1l3.5-5-19.8.7-3.1 9-2.8-.4L87.8 38h29.4l1.3 2.6-24.3 40.2-4.1 5.4 23.1-1.2 3.1-10.8 3 .7-1.4 14.6H85.4l-1.5-2.7 24.9-40.6zm16.3 39.7l15.6-48.2h5.1l15.6 48.2 4.1.6v3h-15.3v-3l5.5-.6-3.3-11h-19.5l-3.3 10.9 5.5.7v3h-14v-3l4-.6zm26.2-14.6l-7-22.9-1.7-6.6-1.7 6.8-6.9 22.7h17.3zm21.6 14.6V41.8l-5-.7v-2.9h7.7c.9 0 2.5-.1 4.8-.3 2.3-.2 3.7-.3 4.5-.3 4 0 7.2.5 9.6 1.5 2.4 1 4.2 2.5 5.3 4.5 1.1 2 1.6 4.5 1.6 7.5 0 2.1-.4 4.3-1.1 6.2-.7 2-1.8 3.7-3.2 5.2-1.4 1.5-3.1 2.5-5 3.1 1 .8 2.1 2 3.1 3.7 1.2 2 2.6 4.5 4.2 7.7 1.5 3 2.7 5.1 3.5 6.3.8 1.4 1.6 2.2 2.2 2.4l2.6.8v2.8h-7.3c-.7 0-1.5-.8-2.4-2.5-.9-1.6-2.1-4.1-3.6-7.4-1.7-3.7-3.1-6.6-4.2-8.7-1.1-2.1-2.2-3.5-3.3-4.1h-8.8v19.2l6.4.6v3h-16.9v-3l5.3-.5zm13.6-22.6c2.9 0 5.2-1 6.9-3 1.6-2 2.5-4.9 2.5-8.7 0-3.5-.9-6.2-2.7-7.9s-4.7-2.6-8.8-2.6c-1.3 0-2.7.1-4.4.3-.8.1-1.4.1-1.9.1v21.8c.8.1 2.5.1 5 .1h3.4z"/><path fill="none" stroke="#B3B3B3" stroke-miterlimit="10" d="M16.5 27v-3.8h174.6V27M16.5 100.1v3.5h174.6v-3.5"/></svg>